<svg xmlns="http://www.w3.org/2000/svg" xmlns:xlink="http://www.w3.org/1999/xlink" width="500" zoomAndPan="magnify" viewBox="0 0 375 149.999998" height="200" preserveAspectRatio="xMidYMid meet" version="1.0"><defs><g/><clipPath id="77109a815f"><path d="M 0 20.683594 L 375 20.683594 L 375 129.570312 L 0 129.570312 Z M 0 20.683594 " clip-rule="nonzero"/></clipPath></defs><g clip-path="url(#77109a815f)"><path fill="#1877f2" d="M 599.335938 129.300781 L 12.257812 129.300781 C 5.5 129.300781 0 123.800781 0 117.042969 L 0 53.964844 C 0 47.207031 5.5 41.710938 12.257812 41.710938 L 33.273438 41.710938 C 38.097656 41.710938 42.035156 37.773438 42.035156 32.949219 C 42.035156 26.191406 47.535156 20.691406 54.292969 20.691406 L 117.367188 20.691406 C 124.125 20.691406 129.625 26.191406 129.625 32.949219 C 129.625 37.773438 133.5625 41.710938 138.386719 41.710938 L 159.40625 41.710938 C 166.164062 41.710938 171.660156 47.207031 171.660156 53.964844 L 171.660156 66.222656 L 168.167969 66.222656 L 168.167969 53.964844 C 168.167969 49.144531 164.226562 45.203125 159.40625 45.203125 L 138.410156 45.203125 C 131.652344 45.203125 126.152344 39.707031 126.152344 32.949219 C 126.152344 28.125 122.214844 24.1875 117.390625 24.1875 L 54.316406 24.1875 C 49.492188 24.1875 45.554688 28.125 45.554688 32.949219 C 45.554688 39.707031 40.054688 45.203125 33.296875 45.203125 L 12.257812 45.203125 C 7.433594 45.203125 3.496094 49.144531 3.496094 53.964844 L 3.496094 117.042969 C 3.496094 121.867188 7.433594 125.804688 12.257812 125.804688 L 599.3125 125.804688 L 599.3125 129.300781 Z M 114.621094 84.980469 C 114.621094 69.113281 101.710938 56.203125 85.84375 56.203125 C 69.972656 56.203125 57.066406 69.113281 57.066406 84.980469 C 57.066406 100.847656 69.972656 113.757812 85.84375 113.757812 C 101.710938 113.757812 114.621094 100.847656 114.621094 84.980469 Z M 111.101562 84.980469 C 111.101562 98.914062 99.777344 110.238281 85.84375 110.238281 C 71.90625 110.238281 60.582031 98.914062 60.582031 84.980469 C 60.582031 71.046875 71.90625 59.722656 85.84375 59.722656 C 99.777344 59.722656 111.101562 71.070312 111.101562 84.980469 Z M 40.054688 62.984375 C 40.054688 59.253906 37.027344 56.203125 33.273438 56.203125 C 29.546875 56.203125 26.492188 59.230469 26.492188 62.984375 C 26.492188 66.710938 29.523438 69.765625 33.273438 69.765625 C 37.027344 69.765625 40.054688 66.734375 40.054688 62.984375 Z M 36.558594 62.984375 C 36.558594 64.777344 35.09375 66.246094 33.296875 66.246094 C 31.503906 66.246094 30.035156 64.777344 30.035156 62.984375 C 30.035156 61.191406 31.503906 59.722656 33.296875 59.722656 C 35.09375 59.722656 36.558594 61.191406 36.558594 62.984375 Z M 36.558594 62.984375 " fill-opacity="1" fill-rule="nonzero"/></g><g fill="#1877f2" fill-opacity="1"><g transform="translate(164.455382, 120.598438)"><g><path d="M 46.59375 -106.03125 C 51.457031 -106.03125 55.492188 -105.273438 58.703125 -103.765625 C 61.921875 -102.253906 63.53125 -100.523438 63.53125 -98.578125 C 63.53125 -97.316406 63.09375 -96.320312 62.21875 -95.59375 C 61.34375 -94.863281 60.269531 -94.5 59 -94.5 C 58.03125 -94.5 57.15625 -94.71875 56.375 -95.15625 C 55.59375 -95.59375 54.71875 -96.441406 53.75 -97.703125 C 52.09375 -99.742188 50.3125 -101.25 48.40625 -102.21875 C 46.507812 -103.195312 44.25 -103.6875 41.625 -103.6875 C 35.6875 -103.6875 30.960938 -100.398438 27.453125 -93.828125 C 23.953125 -87.265625 22.203125 -77.359375 22.203125 -64.109375 L 22.203125 -54.625 C 26.773438 -54.71875 33.25 -55.203125 41.625 -56.078125 C 41.914062 -56.078125 42.15625 -55.757812 42.34375 -55.125 C 42.539062 -54.5 42.640625 -53.695312 42.640625 -52.71875 C 42.640625 -51.9375 42.492188 -51.15625 42.203125 -50.375 C 41.910156 -49.601562 41.570312 -49.265625 41.1875 -49.359375 C 35.832031 -50.628906 29.503906 -51.359375 22.203125 -51.546875 L 22.203125 -11.828125 C 22.203125 -8.804688 22.539062 -6.613281 23.21875 -5.25 C 23.90625 -3.894531 25.242188 -2.972656 27.234375 -2.484375 C 29.234375 -1.992188 32.472656 -1.75 36.953125 -1.75 C 37.140625 -1.75 37.234375 -1.457031 37.234375 -0.875 C 37.234375 -0.289062 37.140625 0 36.953125 0 L 27.609375 -0.140625 C 25.660156 -0.242188 22.640625 -0.296875 18.546875 -0.296875 L 10.515625 -0.140625 C 9.148438 -0.046875 7.25 0 4.8125 0 C 4.519531 0 4.375 -0.289062 4.375 -0.875 C 4.375 -1.457031 4.519531 -1.75 4.8125 -1.75 C 7.832031 -1.75 10.046875 -2.015625 11.453125 -2.546875 C 12.867188 -3.085938 13.84375 -4.039062 14.375 -5.40625 C 14.914062 -6.769531 15.1875 -8.910156 15.1875 -11.828125 L 15.1875 -44.6875 C 15.1875 -47.320312 14.96875 -49.148438 14.53125 -50.171875 C 14.09375 -51.191406 13.164062 -51.867188 11.75 -52.203125 C 10.34375 -52.546875 7.835938 -52.71875 4.234375 -52.71875 C 3.941406 -52.71875 3.796875 -53.007812 3.796875 -53.59375 C 3.796875 -54.175781 3.941406 -54.46875 4.234375 -54.46875 C 8.421875 -54.46875 11.242188 -54.929688 12.703125 -55.859375 C 14.160156 -56.785156 14.941406 -58.515625 15.046875 -61.046875 C 15.523438 -76.816406 18.367188 -88.253906 23.578125 -95.359375 C 28.796875 -102.472656 36.46875 -106.03125 46.59375 -106.03125 Z M 46.59375 -106.03125 "/></g></g></g><g fill="#1877f2" fill-opacity="1"><g transform="translate(205.346417, 120.598438)"><g><path d="M 51.40625 -7.890625 C 51.695312 -7.890625 51.960938 -7.71875 52.203125 -7.375 C 52.453125 -7.03125 52.476562 -6.710938 52.28125 -6.421875 C 45.851562 -0.972656 38.894531 1.75 31.40625 1.75 C 25.851562 1.75 21.128906 0.4375 17.234375 -2.1875 C 13.335938 -4.820312 10.390625 -8.253906 8.390625 -12.484375 C 6.398438 -16.722656 5.40625 -21.320312 5.40625 -26.28125 C 5.40625 -32.03125 6.765625 -37.3125 9.484375 -42.125 C 12.210938 -46.945312 15.890625 -50.742188 20.515625 -53.515625 C 25.140625 -56.296875 30.179688 -57.6875 35.640625 -57.6875 C 41.085938 -57.6875 45.195312 -56.203125 47.96875 -53.234375 C 50.75 -50.265625 52.140625 -46.203125 52.140625 -41.046875 C 52.140625 -39.679688 52.015625 -38.726562 51.765625 -38.1875 C 51.523438 -37.65625 51.066406 -37.390625 50.390625 -37.390625 L 14.015625 -37.234375 C 13.828125 -34.898438 13.734375 -33.003906 13.734375 -31.546875 C 13.734375 -23.078125 15.726562 -16.1875 19.71875 -10.875 C 23.707031 -5.570312 29.304688 -2.921875 36.515625 -2.921875 C 39.535156 -2.921875 42.113281 -3.332031 44.25 -4.15625 C 46.394531 -4.988281 48.734375 -6.234375 51.265625 -7.890625 Z M 30.96875 -54.765625 C 26.582031 -54.765625 22.953125 -53.375 20.078125 -50.59375 C 17.203125 -47.820312 15.28125 -43.957031 14.3125 -39 L 43.671875 -39.578125 C 43.765625 -44.640625 42.664062 -48.4375 40.375 -50.96875 C 38.09375 -53.5 34.957031 -54.765625 30.96875 -54.765625 Z M 30.96875 -54.765625 "/></g></g></g><g fill="#1877f2" fill-opacity="1"><g transform="translate(260.841538, 120.598438)"><g><path d="M 5.984375 0 C 5.691406 0 5.546875 -0.289062 5.546875 -0.875 C 5.546875 -1.457031 5.691406 -1.75 5.984375 -1.75 C 8.804688 -1.75 10.847656 -1.992188 12.109375 -2.484375 C 13.378906 -2.972656 14.257812 -3.921875 14.75 -5.328125 C 15.238281 -6.742188 15.484375 -8.910156 15.484375 -11.828125 L 15.484375 -87.625 C 15.484375 -91.226562 15.140625 -93.804688 14.453125 -95.359375 C 13.773438 -96.921875 12.5625 -97.703125 10.8125 -97.703125 C 9.25 -97.703125 6.910156 -96.972656 3.796875 -95.515625 L 3.5 -95.515625 C 3.113281 -95.515625 2.847656 -95.753906 2.703125 -96.234375 C 2.554688 -96.722656 2.675781 -97.019531 3.0625 -97.125 L 21.03125 -105.734375 C 21.226562 -105.835938 21.472656 -105.890625 21.765625 -105.890625 C 21.953125 -105.890625 22.164062 -105.789062 22.40625 -105.59375 C 22.65625 -105.394531 22.78125 -105.148438 22.78125 -104.859375 L 22.78125 -11.828125 C 22.78125 -8.910156 23 -6.769531 23.4375 -5.40625 C 23.875 -4.039062 24.75 -3.085938 26.0625 -2.546875 C 27.382812 -2.015625 29.457031 -1.75 32.28125 -1.75 C 32.570312 -1.75 32.71875 -1.457031 32.71875 -0.875 C 32.71875 -0.289062 32.570312 0 32.28125 0 C 30.132812 0 28.378906 -0.046875 27.015625 -0.140625 L 19.125 -0.296875 L 11.25 -0.140625 C 9.976562 -0.046875 8.222656 0 5.984375 0 Z M 5.984375 0 "/></g></g></g><g fill="#1877f2" fill-opacity="1"><g transform="translate(294.576571, 120.598438)"><g><path d="M 14.015625 -47.03125 C 14.015625 -43.425781 15.132812 -40.625 17.375 -38.625 C 19.613281 -36.632812 23.023438 -34.519531 27.609375 -32.28125 C 30.910156 -30.625 33.535156 -29.160156 35.484375 -27.890625 C 37.429688 -26.628906 39.085938 -25 40.453125 -23 C 41.816406 -21.007812 42.5 -18.597656 42.5 -15.765625 C 42.5 -10.898438 40.671875 -6.785156 37.015625 -3.421875 C 33.367188 -0.0664062 28.378906 1.609375 22.046875 1.609375 C 16.890625 1.609375 12.316406 0.0976562 8.328125 -2.921875 C 7.742188 -3.304688 7.453125 -3.890625 7.453125 -4.671875 L 7.15625 -15.1875 C 7.15625 -15.476562 7.421875 -15.644531 7.953125 -15.6875 C 8.492188 -15.738281 8.8125 -15.617188 8.90625 -15.328125 C 10.757812 -10.460938 13.117188 -6.882812 15.984375 -4.59375 C 18.859375 -2.3125 22.289062 -1.171875 26.28125 -1.171875 C 29.59375 -1.171875 32.125 -1.898438 33.875 -3.359375 C 35.632812 -4.816406 36.515625 -6.957031 36.515625 -9.78125 C 36.515625 -12.601562 35.90625 -14.960938 34.6875 -16.859375 C 33.46875 -18.765625 31.957031 -20.300781 30.15625 -21.46875 C 28.351562 -22.632812 25.894531 -23.945312 22.78125 -25.40625 C 19.570312 -26.96875 17.015625 -28.359375 15.109375 -29.578125 C 13.210938 -30.796875 11.609375 -32.425781 10.296875 -34.46875 C 8.984375 -36.507812 8.328125 -39.039062 8.328125 -42.0625 C 8.328125 -47.21875 10.273438 -51.207031 14.171875 -54.03125 C 18.066406 -56.851562 22.640625 -58.265625 27.890625 -58.265625 C 31.492188 -58.265625 34.953125 -57.535156 38.265625 -56.078125 C 38.847656 -55.785156 39.210938 -55.539062 39.359375 -55.34375 C 39.503906 -55.15625 39.578125 -54.863281 39.578125 -54.46875 C 39.578125 -52.625 39.53125 -51.164062 39.4375 -50.09375 L 39.28125 -44.390625 C 39.28125 -44.203125 38.988281 -44.109375 38.40625 -44.109375 C 37.820312 -44.109375 37.53125 -44.203125 37.53125 -44.390625 C 37.53125 -47.515625 35.921875 -50.125 32.703125 -52.21875 C 29.492188 -54.3125 26.085938 -55.359375 22.484375 -55.359375 C 19.859375 -55.359375 17.789062 -54.648438 16.28125 -53.234375 C 14.769531 -51.816406 14.015625 -49.75 14.015625 -47.03125 Z M 14.015625 -47.03125 "/></g></g></g><g fill="#1877f2" fill-opacity="1"><g transform="translate(340.286963, 120.598438)"><g><path d="M 20.15625 -75.359375 C 18.300781 -75.359375 16.863281 -75.84375 15.84375 -76.8125 C 14.820312 -77.789062 14.3125 -79.15625 14.3125 -80.90625 C 14.3125 -82.65625 14.820312 -84.015625 15.84375 -84.984375 C 16.863281 -85.960938 18.300781 -86.453125 20.15625 -86.453125 C 21.90625 -86.453125 23.265625 -85.960938 24.234375 -84.984375 C 25.210938 -84.015625 25.703125 -82.65625 25.703125 -80.90625 C 25.703125 -79.15625 25.210938 -77.789062 24.234375 -76.8125 C 23.265625 -75.84375 21.90625 -75.359375 20.15625 -75.359375 Z M 8.328125 0 C 8.128906 0 8.03125 -0.289062 8.03125 -0.875 C 8.03125 -1.457031 8.128906 -1.75 8.328125 -1.75 C 11.148438 -1.75 13.21875 -1.992188 14.53125 -2.484375 C 15.84375 -2.972656 16.742188 -3.921875 17.234375 -5.328125 C 17.722656 -6.742188 17.96875 -8.910156 17.96875 -11.828125 L 17.96875 -39.4375 C 17.96875 -43.039062 17.597656 -45.617188 16.859375 -47.171875 C 16.128906 -48.734375 14.890625 -49.515625 13.140625 -49.515625 C 11.296875 -49.515625 8.960938 -48.78125 6.140625 -47.3125 L 5.984375 -47.3125 C 5.597656 -47.3125 5.304688 -47.554688 5.109375 -48.046875 C 4.910156 -48.535156 5.007812 -48.878906 5.40625 -49.078125 L 23.515625 -57.546875 L 24.09375 -57.6875 C 24.289062 -57.6875 24.507812 -57.585938 24.75 -57.390625 C 25 -57.203125 25.125 -56.960938 25.125 -56.671875 C 25.125 -56.085938 25.070312 -54.160156 24.96875 -50.890625 C 24.875 -47.628906 24.828125 -43.859375 24.828125 -39.578125 L 24.828125 -11.828125 C 24.828125 -8.910156 25.046875 -6.742188 25.484375 -5.328125 C 25.921875 -3.921875 26.796875 -2.972656 28.109375 -2.484375 C 29.421875 -1.992188 31.492188 -1.75 34.328125 -1.75 C 34.617188 -1.75 34.765625 -1.457031 34.765625 -0.875 C 34.765625 -0.289062 34.617188 0 34.328125 0 C 32.085938 0 30.332031 -0.046875 29.0625 -0.140625 L 21.328125 -0.296875 L 13.734375 -0.140625 C 12.367188 -0.046875 10.566406 0 8.328125 0 Z M 8.328125 0 "/></g></g></g></svg>